<svg xmlns="http://www.w3.org/2000/svg" xmlns:xlink="http://www.w3.org/1999/xlink" width="179" height="180" viewBox="0 0 179 180"><defs><clipPath id="clip-path"><rect id="Rectangle_1" data-name="Rectangle 1" width="179" height="180" fill="none"></rect></clipPath></defs><g id="square_large" clip-path="url(#clip-path)"><g id="Group_2" data-name="Group 2" transform="translate(-171 -320)"><rect id="Rectangle_1-2" data-name="Rectangle 1" width="15" height="15" rx="7.5" transform="translate(177 326)" fill="#f2f5fa"></rect></g><g id="Group_3" data-name="Group 3" transform="translate(-140 -320)"><rect id="Rectangle_1-3" data-name="Rectangle 1" width="15" height="15" rx="7.5" transform="translate(177 326)" fill="#f2f5fa"></rect></g><g id="Group_4" data-name="Group 4" transform="translate(-109 -320)"><rect id="Rectangle_1-4" data-name="Rectangle 1" width="15" height="15" rx="7.5" transform="translate(177 326)" fill="#f2f5fa"></rect></g><g id="Group_5" data-name="Group 5" transform="translate(-78 -320)"><rect id="Rectangle_1-5" data-name="Rectangle 1" width="15" height="15" rx="7.5" transform="translate(177 326)" fill="#f2f5fa"></rect></g><g id="Group_6" data-name="Group 6" transform="translate(-47 -320)"><rect id="Rectangle_1-6" data-name="Rectangle 1" width="15" height="15" rx="7.5" transform="translate(177 326)" fill="#f2f5fa"></rect></g><g id="Group_7" data-name="Group 7" transform="translate(-16 -320)"><rect id="Rectangle_1-7" data-name="Rectangle 1" width="15" height="15" rx="7.5" transform="translate(177 326)" fill="#f2f5fa"></rect></g><g id="Group_8" data-name="Group 8" transform="translate(-171 -289)"><rect id="Rectangle_1-8" data-name="Rectangle 1" width="15" height="15" rx="7.5" transform="translate(177 326)" fill="#f2f5fa"></rect></g><g id="Group_9" data-name="Group 9" transform="translate(-140 -289)"><rect id="Rectangle_1-9" data-name="Rectangle 1" width="15" height="15" rx="7.5" transform="translate(177 326)" fill="#f2f5fa"></rect></g><g id="Group_10" data-name="Group 10" transform="translate(-109 -289)"><rect id="Rectangle_1-10" data-name="Rectangle 1" width="15" height="15" rx="7.5" transform="translate(177 326)" fill="#f2f5fa"></rect></g><g id="Group_11" data-name="Group 11" transform="translate(-78 -289)"><rect id="Rectangle_1-11" data-name="Rectangle 1" width="15" height="15" rx="7.5" transform="translate(177 326)" fill="#f2f5fa"></rect></g><g id="Group_12" data-name="Group 12" transform="translate(-47 -289)"><rect id="Rectangle_1-12" data-name="Rectangle 1" width="15" height="15" rx="7.5" transform="translate(177 326)" fill="#f2f5fa"></rect></g><g id="Group_13" data-name="Group 13" transform="translate(-16 -289)"><rect id="Rectangle_1-13" data-name="Rectangle 1" width="15" height="15" rx="7.5" transform="translate(177 326)" fill="#f2f5fa"></rect></g><g id="Group_14" data-name="Group 14" transform="translate(-171 -258)"><rect id="Rectangle_1-14" data-name="Rectangle 1" width="15" height="15" rx="7.5" transform="translate(177 326)" fill="#f2f5fa"></rect></g><g id="Group_15" data-name="Group 15" transform="translate(-140 -258)"><rect id="Rectangle_1-15" data-name="Rectangle 1" width="15" height="15" rx="7.5" transform="translate(177 326)" fill="#f2f5fa"></rect></g><g id="Group_16" data-name="Group 16" transform="translate(-109 -258)"><rect id="Rectangle_1-16" data-name="Rectangle 1" width="15" height="15" rx="7.5" transform="translate(177 326)" fill="#f2f5fa"></rect></g><g id="Group_17" data-name="Group 17" transform="translate(-78 -258)"><rect id="Rectangle_1-17" data-name="Rectangle 1" width="15" height="15" rx="7.5" transform="translate(177 326)" fill="#f2f5fa"></rect></g><g id="Group_18" data-name="Group 18" transform="translate(-47 -258)"><rect id="Rectangle_1-18" data-name="Rectangle 1" width="15" height="15" rx="7.5" transform="translate(177 326)" fill="#f2f5fa"></rect></g><g id="Group_19" data-name="Group 19" transform="translate(-16 -258)"><rect id="Rectangle_1-19" data-name="Rectangle 1" width="15" height="15" rx="7.5" transform="translate(177 326)" fill="#f2f5fa"></rect></g><g id="Group_20" data-name="Group 20" transform="translate(-171 -227)"><rect id="Rectangle_1-20" data-name="Rectangle 1" width="15" height="15" rx="7.5" transform="translate(177 326)" fill="#f2f5fa"></rect></g><g id="Group_21" data-name="Group 21" transform="translate(-140 -227)"><rect id="Rectangle_1-21" data-name="Rectangle 1" width="15" height="15" rx="7.5" transform="translate(177 326)" fill="#f2f5fa"></rect></g><g id="Group_22" data-name="Group 22" transform="translate(-109 -227)"><rect id="Rectangle_1-22" data-name="Rectangle 1" width="15" height="15" rx="7.5" transform="translate(177 326)" fill="#f2f5fa"></rect></g><g id="Group_23" data-name="Group 23" transform="translate(-78 -227)"><rect id="Rectangle_1-23" data-name="Rectangle 1" width="15" height="15" rx="7.5" transform="translate(177 326)" fill="#f2f5fa"></rect></g><g id="Group_24" data-name="Group 24" transform="translate(-47 -227)"><rect id="Rectangle_1-24" data-name="Rectangle 1" width="15" height="15" rx="7.5" transform="translate(177 326)" fill="#f2f5fa"></rect></g><g id="Group_25" data-name="Group 25" transform="translate(-16 -227)"><rect id="Rectangle_1-25" data-name="Rectangle 1" width="15" height="15" rx="7.5" transform="translate(177 326)" fill="#f2f5fa"></rect></g><g id="Group_26" data-name="Group 26" transform="translate(-171 -196)"><rect id="Rectangle_1-26" data-name="Rectangle 1" width="15" height="15" rx="7.5" transform="translate(177 326)" fill="#f2f5fa"></rect></g><g id="Group_27" data-name="Group 27" transform="translate(-140 -196)"><rect id="Rectangle_1-27" data-name="Rectangle 1" width="15" height="15" rx="7.5" transform="translate(177 326)" fill="#f2f5fa"></rect></g><g id="Group_28" data-name="Group 28" transform="translate(-109 -196)"><rect id="Rectangle_1-28" data-name="Rectangle 1" width="15" height="15" rx="7.5" transform="translate(177 326)" fill="#f2f5fa"></rect></g><g id="Group_29" data-name="Group 29" transform="translate(-78 -196)"><rect id="Rectangle_1-29" data-name="Rectangle 1" width="15" height="15" rx="7.5" transform="translate(177 326)" fill="#f2f5fa"></rect></g><g id="Group_30" data-name="Group 30" transform="translate(-47 -196)"><rect id="Rectangle_1-30" data-name="Rectangle 1" width="15" height="15" rx="7.5" transform="translate(177 326)" fill="#f2f5fa"></rect></g><g id="Group_31" data-name="Group 31" transform="translate(-16 -196)"><rect id="Rectangle_1-31" data-name="Rectangle 1" width="15" height="15" rx="7.5" transform="translate(177 326)" fill="#f2f5fa"></rect></g><g id="Group_32" data-name="Group 32" transform="translate(-171 -165)"><rect id="Rectangle_1-32" data-name="Rectangle 1" width="15" height="15" rx="7.5" transform="translate(177 326)" fill="#f2f5fa"></rect></g><g id="Group_33" data-name="Group 33" transform="translate(-140 -165)"><rect id="Rectangle_1-33" data-name="Rectangle 1" width="15" height="15" rx="7.5" transform="translate(177 326)" fill="#f2f5fa"></rect></g><g id="Group_34" data-name="Group 34" transform="translate(-109 -165)"><rect id="Rectangle_1-34" data-name="Rectangle 1" width="15" height="15" rx="7.5" transform="translate(177 326)" fill="#f2f5fa"></rect></g><g id="Group_35" data-name="Group 35" transform="translate(-78 -165)"><rect id="Rectangle_1-35" data-name="Rectangle 1" width="15" height="15" rx="7.5" transform="translate(177 326)" fill="#f2f5fa"></rect></g><g id="Group_36" data-name="Group 36" transform="translate(-47 -165)"><rect id="Rectangle_1-36" data-name="Rectangle 1" width="15" height="15" rx="7.5" transform="translate(177 326)" fill="#f2f5fa"></rect></g><g id="Group_37" data-name="Group 37" transform="translate(-16 -165)"><rect id="Rectangle_1-37" data-name="Rectangle 1" width="15" height="15" rx="7.5" transform="translate(177 326)" fill="#f2f5fa"></rect></g></g></svg>